<?xml version="1.0" encoding="UTF-8" standalone="no"?>
<!-- Created with Inkscape (http://www.inkscape.org/) -->

<svg
   width="1000"
   height="1000"
   viewBox="0 0 1000 1000"
   version="1.1"
   id="svg5"
   xml:space="preserve"
   inkscape:version="1.2.2 (b0a8486541, 2022-12-01)"
   sodipodi:docname="x-acs.svg"
   inkscape:export-filename="x-acs.png"
   inkscape:export-xdpi="96"
   inkscape:export-ydpi="96"
   xmlns:inkscape="http://www.inkscape.org/namespaces/inkscape"
   xmlns:sodipodi="http://sodipodi.sourceforge.net/DTD/sodipodi-0.dtd"
   xmlns="http://www.w3.org/2000/svg"
   xmlns:svg="http://www.w3.org/2000/svg"><sodipodi:namedview
     id="namedview7"
     pagecolor="#505050"
     bordercolor="#ffffff"
     borderopacity="1"
     inkscape:showpageshadow="0"
     inkscape:pageopacity="0"
     inkscape:pagecheckerboard="1"
     inkscape:deskcolor="#505050"
     inkscape:document-units="px"
     showgrid="false"
     inkscape:zoom="0.524"
     inkscape:cx="499.0458"
     inkscape:cy="500"
     inkscape:window-width="1366"
     inkscape:window-height="707"
     inkscape:window-x="0"
     inkscape:window-y="0"
     inkscape:window-maximized="1"
     inkscape:current-layer="layer1" /><defs
     id="defs2" /><g
     inkscape:label="Layer 1"
     inkscape:groupmode="layer"
     id="layer1"><rect
       style="display:inline;opacity:1;fill:#111111;fill-opacity:1;stroke:none;stroke-width:0"
       id="rect6206"
       width="1000"
       height="1000"
       x="0"
       y="0" /><g
       aria-label="X-ACS"
       id="text7918"
       style="font-weight:600;font-stretch:expanded;font-size:100px;font-family:Iojetka;-inkscape-font-specification:'Iojetka Semi-Bold Expanded';opacity:1;fill:#bbbbbb;stroke-width:0"
       transform="matrix(2.9999985,0,0,2.9999985,-410.87903,-692.74459)"><path
         d="m 153.62642,460.08173 v -125 h 60 v 125 z"
         style="font-weight:600;font-stretch:expanded;font-size:100px;font-family:Iojetka;-inkscape-font-specification:'Iojetka Semi-Bold Expanded';display:inline;opacity:1;fill:#bbbbbb;stroke-width:0"
         id="path7933" /><g
         id="g7957"
         style="display:none"
         sodipodi:insensitive="true"><path
           d="m 213.62646,460.08173 v -125 h 60 v 125 z"
           id="path7935"
           style="font-weight:600;font-stretch:expanded;font-size:100px;font-family:Iojetka;-inkscape-font-specification:'Iojetka Semi-Bold Expanded';display:inline;opacity:1;fill:#111111;stroke-width:0" /><path
           d="m 273.6265,460.08173 v -125 h 60 v 125 z"
           id="path7937"
           style="font-weight:600;font-stretch:expanded;font-size:100px;font-family:Iojetka;-inkscape-font-specification:'Iojetka Semi-Bold Expanded';display:inline;opacity:1;fill:#111111;stroke-width:0" /><path
           d="m 333.62654,460.08173 v -125 h 60 v 125 z"
           id="path7939"
           style="font-weight:600;font-stretch:expanded;font-size:100px;font-family:Iojetka;-inkscape-font-specification:'Iojetka Semi-Bold Expanded';display:inline;opacity:1;fill:#111111;stroke-width:0" /><path
           d="m 393.62657,460.08173 v -125 h 60 v 125 z"
           id="path7941"
           style="font-weight:600;font-stretch:expanded;font-size:100px;font-family:Iojetka;-inkscape-font-specification:'Iojetka Semi-Bold Expanded';display:inline;opacity:1;fill:#111111;stroke-width:0" /></g><rect
         style="font-weight:600;font-stretch:expanded;font-size:100px;font-family:Iojetka;-inkscape-font-specification:'Iojetka Semi-Bold Expanded';opacity:1;fill:#111111;stroke-width:0;fill-opacity:1;stroke:none"
         id="rect7949"
         width="720"
         height="374.99982"
         x="230.00003"
         y="312.50009"
         transform="matrix(0.3333335,0,0,0.3333335,136.95975,230.91498)" /><path
         d="m 160.17642,434.33173 18.7,-36.7 -18.7,-36.8 h 12 l 12.4,25.3 12.4,-25.3 h 12 l -18.7,36.7 18.7,36.8 h -12 l -12.4,-25.3 -12.4,25.3 z"
         style="display:inline;fill:#111111"
         id="path7922" /><path
         d="m 222.87645,404.93173 v -9.2 h 43.4 v 9.2 z"
         style="display:inline;fill:#eeeeee"
         id="path7924" /><path
         d="m 279.87649,434.33173 12.4,-49 6.2,-24.5 h 12.2 l 18.6,73.5 h -11.1 l -3.9,-16.8 h -19.4 l -3.9,16.8 z m 32.3,-26 -5.4,-23 q -0.5,-2.5 -1.1,-4.9 -0.6,-2.5 -1.1,-5 -0.5,2.5 -1.1,5 -0.6,2.4 -1.1,4.9 l -5.4,23 z"
         style="display:inline;fill:#eeeeee"
         id="path7926" /><path
         d="m 364.37654,435.13173 q -3,0 -6,-0.5 -2.9,-0.5 -5.6,-1.8 -2.6,-1.3 -4.8,-3.4 -2.1,-2.1 -3.5,-4.7 -1.3,-2.6 -1.9,-5.5 -0.5,-3 -0.5,-5.9 v -31.5 q 0,-2.9 0.5,-5.8 0.6,-3 1.9,-5.6 1.4,-2.6 3.5,-4.7 2.2,-2.1 4.8,-3.4 2.7,-1.3 5.6,-1.8 3,-0.5 6,-0.5 2.7,0 5.4,0.4 2.8,0.4 5.3,1.5 2.6,1 4.7,2.8 2.2,1.8 3.7,4.1 1.5,2.3 2.2,5 0.8,2.7 0.8,5.5 0,0 0,0 0,0 0,0 h -10.7 q 0,0 0,0 0,0 0,0 0,-2.2 -0.9,-4.2 -0.8,-2 -2.5,-3.4 -1.6,-1.4 -3.8,-1.9 -2.1,-0.6 -4.2,-0.6 -2.5,0 -4.9,0.9 -2.3,0.8 -3.9,2.7 -1.5,1.8 -2.2,4.2 -0.6,2.4 -0.6,4.8 v 31.5 q 0,2.4 0.6,4.8 0.7,2.4 2.2,4.3 1.6,1.8 3.9,2.7 2.4,0.8 4.9,0.8 2.1,0 4.2,-0.5 2.2,-0.6 3.8,-2 1.7,-1.4 2.5,-3.4 0.9,-2 0.9,-4.2 0,0 0,0 0,0 0,0 h 10.7 q 0,0 0,0 0,0 0,0 0,2.8 -0.8,5.5 -0.7,2.7 -2.2,5 -1.5,2.3 -3.7,4.1 -2.1,1.8 -4.7,2.9 -2.5,1 -5.3,1.4 -2.7,0.4 -5.4,0.4 z"
         style="display:inline;fill:#eeeeee"
         id="path7928" /><path
         d="m 424.47657,435.13173 q -2.8,0 -5.6,-0.4 -2.8,-0.4 -5.4,-1.4 -2.5,-1.1 -4.8,-2.8 -2.2,-1.7 -3.7,-4 -1.5,-2.4 -2.3,-5.1 -0.8,-2.7 -0.8,-5.5 0,0 0,0 0,-0.1 0,-0.1 h 10.7 q 0,0 0,0 0,0 0,0.1 0,2.2 0.9,4.3 1,2 2.7,3.3 1.7,1.3 3.9,1.9 2.2,0.5 4.4,0.5 2.2,0 4.4,-0.6 2.3,-0.6 4,-2.1 1.7,-1.5 2.6,-3.6 0.9,-2.2 0.9,-4.5 0,-2.6 -1.3,-4.9 -1.3,-2.4 -3.4,-3.9 -2.1,-1.6 -4.6,-2.5 -2.5,-0.9 -5,-1.7 -2.4,-0.9 -4.8,-2 -2.4,-1.1 -4.6,-2.6 -2.1,-1.5 -4,-3.4 -1.8,-1.9 -3.1,-4.1 -1.3,-2.3 -2,-4.8 -0.7,-2.6 -0.7,-5.2 0,-2.8 0.7,-5.5 0.7,-2.8 2.1,-5.2 1.4,-2.4 3.5,-4.2 2.1,-1.9 4.6,-3 2.6,-1.2 5.4,-1.6 2.8,-0.5 5.5,-0.5 2.8,0 5.5,0.4 2.7,0.4 5.2,1.5 2.5,1 4.6,2.8 2.1,1.7 3.5,4 1.5,2.3 2.2,5 0.8,2.6 0.8,5.3 0,0 0,0.1 0,0 0,0 h -10.7 q 0,0 0,0 0,0 0,0 0,-2.1 -0.9,-4.1 -0.8,-2 -2.4,-3.3 -1.5,-1.4 -3.6,-1.9 -2.1,-0.6 -4.2,-0.6 -2.1,0 -4.3,0.7 -2.1,0.6 -3.7,2.1 -1.6,1.5 -2.4,3.7 -0.7,2.1 -0.7,4.2 0,2.7 1.2,5.1 1.3,2.3 3.4,3.9 2.1,1.5 4.6,2.4 2.5,0.9 5,1.8 2.5,0.8 4.9,1.9 2.4,1.1 4.5,2.6 2.2,1.5 4,3.4 1.9,1.8 3.2,4.1 1.3,2.3 2,4.9 0.7,2.5 0.7,5.1 0,2.8 -0.8,5.6 -0.7,2.8 -2.2,5.2 -1.5,2.4 -3.7,4.3 -2.2,1.8 -4.8,3 -2.6,1.1 -5.5,1.5 -2.8,0.4 -5.6,0.4 z"
         style="display:inline;fill:#eeeeee"
         id="path7930" /></g></g></svg>
